<svg width="26" height="24" viewBox="0 0 26 24" fill="none" xmlns="http://www.w3.org/2000/svg">
<path d="M13.0062 6.36236C9.31518 6.36236 6.33795 8.95319 6.33795 12.1652C6.33795 15.3772 9.31518 17.9681 13.0062 17.9681C16.6973 17.9681 19.6746 15.3772 19.6746 12.1652C19.6746 8.95319 16.6973 6.36236 13.0062 6.36236ZM13.0062 15.9378C10.621 15.9378 8.67098 14.246 8.67098 12.1652C8.67098 10.0845 10.6152 8.3926 13.0062 8.3926C15.3973 8.3926 17.3415 10.0845 17.3415 12.1652C17.3415 14.246 15.3915 15.9378 13.0062 15.9378ZM21.5027 6.12499C21.5027 6.87749 20.8062 7.47849 19.9473 7.47849C19.0826 7.47849 18.392 6.87244 18.392 6.12499C18.392 5.37754 19.0884 4.7715 19.9473 4.7715C20.8062 4.7715 21.5027 5.37754 21.5027 6.12499ZM25.9192 7.49869C25.8205 5.68561 25.3446 4.0796 23.8183 2.7564C22.2978 1.43321 20.4522 1.01908 18.3687 0.928176C16.2214 0.822118 9.78527 0.822118 7.63795 0.928176C5.56027 1.01403 3.71473 1.42816 2.18839 2.75135C0.662054 4.07455 0.191964 5.68056 0.0875 7.49364C-0.034375 9.36227 -0.034375 14.9631 0.0875 16.8317C0.186161 18.6448 0.662054 20.2508 2.18839 21.574C3.71473 22.8972 5.55446 23.3113 7.63795 23.4023C9.78527 23.5083 16.2214 23.5083 18.3687 23.4023C20.4522 23.3164 22.2978 22.9023 23.8183 21.574C25.3388 20.2508 25.8147 18.6448 25.9192 16.8317C26.0411 14.9631 26.0411 9.36732 25.9192 7.49869ZM23.1451 18.8367C22.6924 19.8266 21.8161 20.5892 20.6728 20.9882C18.9607 21.5791 14.8982 21.4427 13.0062 21.4427C11.1143 21.4427 7.04598 21.574 5.33973 20.9882C4.20223 20.5943 3.32589 19.8317 2.86741 18.8367C2.18839 17.3469 2.34509 13.8116 2.34509 12.1652C2.34509 10.5188 2.1942 6.9785 2.86741 5.4937C3.32009 4.50383 4.19643 3.74122 5.33973 3.34225C7.05178 2.75135 11.1143 2.88771 13.0062 2.88771C14.8982 2.88771 18.9665 2.7564 20.6728 3.34225C21.8103 3.73617 22.6866 4.49878 23.1451 5.4937C23.8241 6.98355 23.6674 10.5188 23.6674 12.1652C23.6674 13.8116 23.8241 17.3519 23.1451 18.8367Z" fill="#00437C"/>
</svg>
