<svg width="34" height="25" viewBox="0 0 34 25" fill="none" xmlns="http://www.w3.org/2000/svg">
<path d="M1.25 6.48291L15.0575 14.6905C15.6327 15.0327 16.3086 15.2153 17 15.2153C17.6914 15.2153 18.3673 15.0327 18.9425 14.6905L32.75 6.48291M4.75 23.6471H29.25C30.1783 23.6471 31.0685 23.3183 31.7249 22.7331C32.3813 22.1478 32.75 21.354 32.75 20.5264V4.92253C32.75 4.09485 32.3813 3.30107 31.7249 2.71581C31.0685 2.13055 30.1783 1.80176 29.25 1.80176H4.75C3.82174 1.80176 2.9315 2.13055 2.27513 2.71581C1.61875 3.30107 1.25 4.09485 1.25 4.92253V20.5264C1.25 21.354 1.61875 22.1478 2.27513 22.7331C2.9315 23.3183 3.82174 23.6471 4.75 23.6471Z" stroke="#00437C" stroke-width="2" stroke-linecap="round" stroke-linejoin="round"/>
</svg>
