<svg width="17" height="17" viewBox="0 0 17 17" fill="none" xmlns="http://www.w3.org/2000/svg">
<path fill-rule="evenodd" clip-rule="evenodd" d="M11.3819 10.6918H12.1498L17 15.5517L15.5517 17L10.6918 12.1498V11.3819L10.4294 11.1098C9.32133 12.0623 7.88279 12.6358 6.3179 12.6358C2.82847 12.6358 0 9.80732 0 6.3179C0 2.82847 2.82847 0 6.3179 0C9.80732 0 12.6358 2.82847 12.6358 6.3179C12.6358 7.88279 12.0623 9.32133 11.1098 10.4294L11.3819 10.6918ZM1.94336 6.3179C1.94336 8.73814 3.89705 10.6918 6.31729 10.6918C8.73753 10.6918 10.6912 8.73814 10.6912 6.3179C10.6912 3.89766 8.73753 1.94397 6.31729 1.94397C3.89705 1.94397 1.94336 3.89766 1.94336 6.3179Z" fill="#979797"/>
</svg>
