<svg width="64" height="27" viewBox="0 0 64 27" fill="none" xmlns="http://www.w3.org/2000/svg">
<path fill-rule="evenodd" clip-rule="evenodd" d="M1.49176 0.224645C1.39168 0.224645 1.31055 0.30669 1.31055 0.407899L1.31055 14.7812H4.4204V11.4567H7.44138C9.49979 11.4567 11.0917 10.9287 12.2172 9.87288C13.3426 8.81707 13.9053 7.47305 13.9053 5.84068C13.9053 4.20831 13.3426 2.86416 12.2172 1.80842C11.0917 0.752546 9.50728 0.224645 7.46352 0.224645H1.49176ZM9.841 7.92972C9.29301 8.48383 8.55268 8.76092 7.61961 8.76092H4.42101L4.42101 2.92028H7.64195C8.5601 2.92028 9.29301 3.19736 9.841 3.75141C10.3889 4.30558 10.6629 5.00193 10.6629 5.84063C10.6629 6.67921 10.3889 7.37568 9.841 7.92972Z" fill="#104378"/>
<path fill-rule="evenodd" clip-rule="evenodd" d="M24.9676 4.57764e-05C22.776 4.57764e-05 20.9582 0.726414 19.5144 2.17902C18.0705 3.63176 17.3486 5.40636 17.3486 7.50302C17.3486 9.6145 18.0705 11.3967 19.5144 12.8493C20.9582 14.302 22.776 15.0283 24.9676 15.0283C27.1594 15.0283 28.9771 14.302 30.4209 12.8493C31.8649 11.3967 32.5867 9.6145 32.5867 7.50302C32.5867 5.40636 31.8649 3.63176 30.4209 2.17902C28.9771 0.726414 27.1594 4.57764e-05 24.9676 4.57764e-05ZM24.9915 12.1754C23.7328 12.1754 22.685 11.7187 21.8484 10.8051C21.0116 9.89165 20.5933 8.79094 20.5933 7.50302C20.5933 6.23005 21.0116 5.13677 21.8484 4.22327C22.685 3.30969 23.7328 2.85297 24.9915 2.85297C26.2353 2.85297 27.2721 3.30969 28.1013 4.22327C28.9306 5.13677 29.3453 6.23005 29.3453 7.50302C29.3453 8.79094 28.9306 9.89165 28.1013 10.8051C27.2721 11.7187 26.2353 12.1754 24.9915 12.1754Z" fill="#104378"/>
<path d="M36.5176 0.22471H39.6274V12.0856L47.9351 12.0856V14.7812L36.5176 14.7812V0.22471Z" fill="#104378"/>
<path d="M51.6465 0.22471L62.9974 0.22471V2.92039L54.7564 2.92039V5.88566L62.5754 5.88566V8.55882L54.7564 8.55882V12.0856L63.2863 12.0856V14.7812L51.6465 14.7812V0.22471Z" fill="#104378"/>
<path d="M1.59893 18.3854C2.41876 17.5606 3.45093 17.1481 4.6955 17.1481C5.72975 17.1481 6.62948 17.4458 7.39462 18.041L6.373 19.2528C5.9357 18.9297 5.41864 18.7681 4.82156 18.7681C4.04802 18.7681 3.41942 19.0254 2.93595 19.5398C2.45243 20.0543 2.21066 20.6772 2.21066 21.4084C2.21066 22.1398 2.44826 22.7648 2.92326 23.2836C3.39839 23.8023 3.99332 24.0616 4.70807 24.0616C5.43961 24.0616 6.04932 23.8406 6.53702 23.3984L7.6091 24.6229C6.8187 25.3287 5.84747 25.6816 4.6955 25.6816C3.45093 25.6816 2.41876 25.2692 1.59893 24.4444C0.779091 23.6194 0.369141 22.6075 0.369141 21.4084C0.369141 20.218 0.779091 19.2102 1.59893 18.3854Z" fill="#1E1B1C"/>
<path d="M19.8768 17.5636H21.6125C21.6355 17.5636 21.6569 17.575 21.6697 17.5941L23.8816 20.8673C24.0582 21.1309 24.2622 21.4476 24.4933 21.8175C24.7246 22.1874 24.9117 22.4915 25.0547 22.7296L25.2691 23.0867V17.6335C25.2691 17.5949 25.3001 17.5636 25.3384 17.5636H26.9657C27.0039 17.5636 27.0349 17.5949 27.0349 17.6335V25.8291H25.2497C25.1986 25.8291 25.1509 25.8038 25.1221 25.7611L23.0871 22.7551C22.86 22.4234 22.6204 22.0578 22.3681 21.6581C22.1159 21.2584 21.9182 20.9396 21.7752 20.7014L21.5735 20.357V25.6728C21.5735 25.7592 21.5042 25.8291 21.4188 25.8291H19.9623C19.8768 25.8291 19.8076 25.7592 19.8076 25.6728V17.6335C19.8076 17.5949 19.8386 17.5636 19.8768 17.5636Z" fill="#1E1B1C"/>
<path d="M29.5703 17.5636H31.4118L33.6443 20.8673C33.8209 21.1309 34.0249 21.4476 34.2562 21.8175C34.4873 22.1874 34.6744 22.4915 34.8174 22.7296L35.0318 23.0867V17.5636H36.7976V25.8291H35.0124C34.9614 25.8291 34.9137 25.8038 34.8848 25.7611L32.8497 22.7551C32.6227 22.4234 32.3831 22.0578 32.1308 21.6581C31.8786 21.2584 31.6809 20.9396 31.538 20.7014L31.3362 20.357V25.8291H29.5703V17.5636Z" fill="#1E1B1C"/>
<path d="M39.5556 17.5636H45.7571C45.7693 17.5636 45.7793 17.5736 45.7793 17.5861V19.0942H41.0998V20.7779H45.5396V22.2959H41.0998V24.2985H45.9433V25.8291H39.334V17.7878C39.334 17.664 39.4332 17.5636 39.5556 17.5636Z" fill="#1E1B1C"/>
<path d="M48.7621 18.6725C49.5819 17.8477 50.614 17.4352 51.8586 17.4352C52.8928 17.4352 53.7926 17.7328 54.5578 18.3282L53.5362 19.5399C53.0989 19.2168 52.5817 19.0552 51.9846 19.0552C51.2111 19.0552 50.5826 19.3124 50.099 19.8268C49.6156 20.3414 49.3738 20.9642 49.3738 21.6955C49.3738 22.4269 49.6114 23.0519 50.0864 23.5706C50.5615 24.0895 51.1564 24.3488 51.8712 24.3488C52.6028 24.3488 53.2125 24.1276 53.7001 23.6855L54.7723 24.91C53.9818 25.6157 53.0106 25.9688 51.8586 25.9688C50.614 25.9688 49.5819 25.5563 48.7621 24.7315C47.9422 23.9065 47.5322 22.8946 47.5322 21.6955C47.5322 20.5051 47.9422 19.4973 48.7621 18.6725Z" fill="#1E1B1C"/>
<path d="M58.7582 19.0942H55.9834V17.5923C55.9834 17.5764 55.9961 17.5636 56.0118 17.5636H63.2706C63.2863 17.5636 63.299 17.5764 63.299 17.5923V19.0942H60.524V25.8291H58.7582V19.0942Z" fill="#1E1B1C"/>
<path d="M13.9138 26.1582C13.7441 26.1582 13.5736 26.1487 13.4024 26.1296C12.1883 25.9939 11.0991 25.3882 10.3354 24.424C9.57178 23.4598 9.22512 22.2526 9.35932 21.0247L10.0065 21.0971C9.89142 22.15 10.1887 23.1854 10.8436 24.0123C11.4985 24.8393 12.4327 25.3587 13.474 25.4751C14.5155 25.5916 15.5391 25.2909 16.3568 24.6286C17.1744 23.9663 17.6882 23.0215 17.8032 21.9685C17.9183 20.9155 17.621 19.8801 16.9661 19.0532C16.3112 18.2263 15.377 17.7068 14.3358 17.5904L14.4073 16.9359C16.9137 17.2161 18.7275 19.5062 18.4504 22.0409C18.3162 23.2687 17.7172 24.3702 16.7638 25.1425C15.9447 25.8059 14.9481 26.1581 13.9138 26.1582Z" fill="#231F20"/>
<path d="M13.8969 24.8467C13.0216 24.8445 12.1995 24.4978 11.5821 23.8703C10.9646 23.2429 10.6259 22.4098 10.6279 21.5247C10.6324 19.7001 12.1017 18.2188 13.9048 18.2188H13.9129C15.7198 18.2232 17.1862 19.7136 17.1818 21.5409L16.5958 21.5394C16.5994 20.0389 15.3952 18.8151 13.9114 18.8115H13.9048C12.424 18.8115 11.2176 20.0277 11.214 21.5261C11.2123 22.2529 11.4904 22.937 11.9975 23.4523C12.5045 23.9675 13.1795 24.2523 13.8983 24.254L13.8969 24.8467Z" fill="#104378"/>
<path d="M13.9055 23.5391C12.8126 23.5391 11.923 22.6406 11.9219 21.5352L12.4428 21.5347C12.4436 22.3497 13.0997 23.0123 13.9055 23.0123H13.907C14.2977 23.0119 14.6649 22.8576 14.9408 22.5779C15.2168 22.2982 15.3686 21.9266 15.3682 21.5316C15.3678 21.1364 15.2152 20.7651 14.9387 20.486C14.6625 20.2073 14.2956 20.0539 13.9055 20.0539H13.904L13.9034 19.5271H13.9055C14.4346 19.5271 14.9321 19.7351 15.3066 20.1131C15.6817 20.4916 15.8885 20.9951 15.8891 21.531C15.8897 22.0668 15.6838 22.5708 15.3096 22.9501C14.9353 23.3293 14.4374 23.5385 13.9076 23.5391H13.9055Z" fill="#36CCBE"/>
</svg>
